<svg width="595" height="107" viewBox="0 0 595 107" fill="none" xmlns="http://www.w3.org/2000/svg">
<g clip-path="url(#clip0_1201_1176)">
<path d="M104.028 77.2778C104.028 80.4309 102.775 83.4549 100.546 85.6845C98.3159 87.9141 95.292 89.1667 92.1388 89.1667H14.8611C11.7079 89.1667 8.68394 87.9141 6.45434 85.6845C4.22474 83.4549 2.97217 80.4309 2.97217 77.2778V18.7636C2.97217 12.198 20.1843 0 26.7499 0H88.052C97.2481 0 104.028 6.87178 104.028 15.9757V77.2778Z" fill="#3E721D"/>
<path d="M98.0834 89.1666C98.0834 92.3198 96.8308 95.3437 94.6012 97.5733C92.3716 99.8029 89.3477 101.056 86.1945 101.056H20.8056C17.6525 101.056 14.6285 99.8029 12.3989 97.5733C10.1693 95.3437 8.91675 92.3198 8.91675 89.1666V17.8333C8.91675 5.59072 8.85434 5.94441 23.7779 5.94441H86.1945C89.3477 5.94441 92.3716 7.19699 94.6012 9.42659C96.8308 11.6562 98.0834 14.6802 98.0834 17.8333V89.1666Z" fill="#CCD6DD"/>
<path d="M92.1388 92.1389C92.1388 94.5038 91.1994 96.7718 89.5272 98.4439C87.855 100.116 85.587 101.056 83.2222 101.056H11.8888C9.52399 101.056 7.256 100.116 5.5838 98.4439C3.9116 96.7718 2.97217 94.5038 2.97217 92.1389V20.8056C2.97217 18.4407 3.9116 16.1727 5.5838 14.5005C7.256 12.8283 9.52399 11.8889 11.8888 11.8889H83.2222C85.587 11.8889 87.855 12.8283 89.5272 14.5005C91.1994 16.1727 92.1388 18.4407 92.1388 20.8056V92.1389Z" fill="#E1E8ED"/>
<path d="M92.1388 95.1112C92.1388 98.2643 90.8862 101.288 88.6566 103.518C86.427 105.747 83.403 107 80.2499 107H17.8332C14.6801 107 11.6561 105.747 9.42651 103.518C7.19691 101.288 5.94434 98.2643 5.94434 95.1112V29.7223C5.94434 26.5691 7.19691 23.5451 9.42651 21.3155C11.6561 19.0859 14.6801 17.8334 17.8332 17.8334H80.2499C83.403 17.8334 86.427 19.0859 88.6566 21.3155C90.8862 23.5451 92.1388 26.5691 92.1388 29.7223V95.1112Z" fill="#5C913B"/>
<path d="M86.1943 95.1112C86.1943 98.2643 84.9418 101.288 82.7122 103.518C80.4826 105.747 77.4586 107 74.3055 107H17.8332C14.6801 107 11.6561 105.747 9.42651 103.518C7.19691 101.288 5.94434 98.2643 5.94434 95.1112V35.6667C5.94434 32.5136 7.19691 29.4896 9.42651 27.26C11.6561 25.0304 14.6801 23.7778 17.8332 23.7778H75.3011C81.8668 23.7778 86.1943 28.1054 86.1943 34.671V95.1112Z" fill="#77B255"/>
<path d="M17.8333 17.8333C12.8162 17.8333 12.6884 12.1207 14.8611 9.65972C17.3339 6.86286 21.177 5.94444 28.0518 5.94444H32.6944V0H24.6129C12.8162 0 2.97217 7.43056 2.97217 15.9757V95.1111C2.97217 98.2642 4.22474 101.288 6.45434 103.518C8.68394 105.747 11.7079 107 14.8611 107H20.8055V17.8333H17.8333Z" fill="#3E721D"/>
</g>
<path d="M141.4 80V23.2H162.68C169.613 23.2 174.867 24.4267 178.44 26.88C182.067 29.3333 183.88 33.2267 183.88 38.56C183.88 40.96 183.373 43.0667 182.36 44.88C181.4 46.64 179.96 48.0267 178.04 49.04C176.173 50.0533 173.907 50.6133 171.24 50.72L171.16 50.56C176.013 50.72 179.747 52.0533 182.36 54.56C184.973 57.0133 186.28 60.2933 186.28 64.4C186.28 69.6267 184.467 73.5467 180.84 76.16C177.267 78.72 172.173 80 165.56 80H141.4ZM151.8 71.2H165.08C168.333 71.2 170.893 70.5333 172.76 69.2C174.68 67.8667 175.64 65.8933 175.64 63.28C175.64 60.6667 174.707 58.6667 172.84 57.28C170.973 55.8933 168.387 55.2 165.08 55.2H151.8V71.2ZM151.8 47.04H162.36C165.773 47.04 168.44 46.4 170.36 45.12C172.28 43.84 173.24 41.9733 173.24 39.52C173.24 36.96 172.307 35.0667 170.44 33.84C168.573 32.6133 165.88 32 162.36 32H151.8V47.04ZM214.394 80.96C210.181 80.96 206.474 80.0533 203.274 78.24C200.128 76.3733 197.674 73.76 195.914 70.4C194.208 67.04 193.354 63.12 193.354 58.64C193.354 54.1067 194.208 50.1867 195.914 46.88C197.674 43.52 200.128 40.9333 203.274 39.12C206.474 37.2533 210.181 36.32 214.394 36.32C218.608 36.32 222.288 37.2533 225.434 39.12C228.581 40.9333 231.008 43.52 232.714 46.88C234.474 50.1867 235.354 54.1067 235.354 58.64C235.354 63.12 234.474 67.04 232.714 70.4C231.008 73.76 228.581 76.3733 225.434 78.24C222.288 80.0533 218.608 80.96 214.394 80.96ZM214.394 72.64C217.701 72.64 220.234 71.4133 221.994 68.96C223.808 66.5067 224.714 63.0667 224.714 58.64C224.714 54.2667 223.808 50.8533 221.994 48.4C220.234 45.8933 217.701 44.64 214.394 44.64C211.088 44.64 208.528 45.8933 206.714 48.4C204.901 50.8533 203.994 54.2667 203.994 58.64C203.994 63.0667 204.901 66.5067 206.714 68.96C208.528 71.4133 211.088 72.64 214.394 72.64ZM261.816 80.96C257.603 80.96 253.896 80.0533 250.696 78.24C247.55 76.3733 245.096 73.76 243.336 70.4C241.63 67.04 240.776 63.12 240.776 58.64C240.776 54.1067 241.63 50.1867 243.336 46.88C245.096 43.52 247.55 40.9333 250.696 39.12C253.896 37.2533 257.603 36.32 261.816 36.32C266.03 36.32 269.71 37.2533 272.856 39.12C276.003 40.9333 278.43 43.52 280.136 46.88C281.896 50.1867 282.776 54.1067 282.776 58.64C282.776 63.12 281.896 67.04 280.136 70.4C278.43 73.76 276.003 76.3733 272.856 78.24C269.71 80.0533 266.03 80.96 261.816 80.96ZM261.816 72.64C265.123 72.64 267.656 71.4133 269.416 68.96C271.23 66.5067 272.136 63.0667 272.136 58.64C272.136 54.2667 271.23 50.8533 269.416 48.4C267.656 45.8933 265.123 44.64 261.816 44.64C258.51 44.64 255.95 45.8933 254.136 48.4C252.323 50.8533 251.416 54.2667 251.416 58.64C251.416 63.0667 252.323 66.5067 254.136 68.96C255.95 71.4133 258.51 72.64 261.816 72.64ZM290.678 80V23.2H300.918V56.56L318.438 37.28H331.078L314.358 55.04L331.638 80H320.118L307.638 61.12L300.918 68.24V80H290.678ZM337.728 80V23.2H359.008C365.941 23.2 371.195 24.4267 374.768 26.88C378.395 29.3333 380.208 33.2267 380.208 38.56C380.208 40.96 379.701 43.0667 378.688 44.88C377.728 46.64 376.288 48.0267 374.368 49.04C372.501 50.0533 370.235 50.6133 367.568 50.72L367.488 50.56C372.341 50.72 376.075 52.0533 378.688 54.56C381.301 57.0133 382.608 60.2933 382.608 64.4C382.608 69.6267 380.795 73.5467 377.168 76.16C373.595 78.72 368.501 80 361.888 80H337.728ZM348.128 71.2H361.408C364.661 71.2 367.221 70.5333 369.088 69.2C371.008 67.8667 371.968 65.8933 371.968 63.28C371.968 60.6667 371.035 58.6667 369.168 57.28C367.301 55.8933 364.715 55.2 361.408 55.2H348.128V71.2ZM348.128 47.04H358.688C362.101 47.04 364.768 46.4 366.688 45.12C368.608 43.84 369.568 41.9733 369.568 39.52C369.568 36.96 368.635 35.0667 366.768 33.84C364.901 32.6133 362.208 32 358.688 32H348.128V47.04ZM405.774 80.96C401.454 80.96 398.014 79.5467 395.454 76.72C392.947 73.84 391.694 69.8667 391.694 64.8V37.28H401.934V62.24C401.934 65.8133 402.52 68.4533 403.694 70.16C404.92 71.8133 406.76 72.64 409.214 72.64C411.987 72.64 414.12 71.7333 415.614 69.92C417.16 68.0533 417.934 65.36 417.934 61.84V37.28H428.174V80H418.814L418.574 68.24L419.854 68.64C419.214 72.6933 417.694 75.76 415.294 77.84C412.894 79.92 409.72 80.96 405.774 80.96ZM453.847 80.96C450.22 80.96 447.074 80.0533 444.407 78.24C441.794 76.4267 439.767 73.84 438.327 70.48C436.887 67.12 436.167 63.1733 436.167 58.64C436.167 54.1067 436.887 50.16 438.327 46.8C439.767 43.44 441.82 40.8533 444.487 39.04C447.154 37.2267 450.274 36.32 453.847 36.32C456.834 36.32 459.447 36.9333 461.687 38.16C463.98 39.3867 465.714 41.12 466.887 43.36V23.2H477.127V80H467.367L467.127 73.68C465.954 75.9733 464.194 77.76 461.847 79.04C459.5 80.32 456.834 80.96 453.847 80.96ZM456.967 72.64C459.1 72.64 460.887 72.1067 462.327 71.04C463.82 69.9733 464.94 68.4 465.687 66.32C466.487 64.1867 466.887 61.6267 466.887 58.64C466.887 55.6 466.487 53.04 465.687 50.96C464.94 48.88 463.82 47.3067 462.327 46.24C460.887 45.1733 459.1 44.64 456.967 44.64C453.874 44.64 451.394 45.8933 449.527 48.4C447.714 50.8533 446.807 54.2667 446.807 58.64C446.807 62.9067 447.714 66.32 449.527 68.88C451.394 71.3867 453.874 72.64 456.967 72.64ZM502.753 80.96C499.126 80.96 495.98 80.0533 493.313 78.24C490.7 76.4267 488.673 73.84 487.233 70.48C485.793 67.12 485.073 63.1733 485.073 58.64C485.073 54.1067 485.793 50.16 487.233 46.8C488.673 43.44 490.726 40.8533 493.393 39.04C496.06 37.2267 499.18 36.32 502.753 36.32C505.74 36.32 508.353 36.9333 510.593 38.16C512.886 39.3867 514.62 41.12 515.793 43.36V23.2H526.033V80H516.273L516.033 73.68C514.86 75.9733 513.1 77.76 510.753 79.04C508.406 80.32 505.74 80.96 502.753 80.96ZM505.873 72.64C508.006 72.64 509.793 72.1067 511.233 71.04C512.726 69.9733 513.846 68.4 514.593 66.32C515.393 64.1867 515.793 61.6267 515.793 58.64C515.793 55.6 515.393 53.04 514.593 50.96C513.846 48.88 512.726 47.3067 511.233 46.24C509.793 45.1733 508.006 44.64 505.873 44.64C502.78 44.64 500.3 45.8933 498.433 48.4C496.62 50.8533 495.713 54.2667 495.713 58.64C495.713 62.9067 496.62 66.32 498.433 68.88C500.3 71.3867 502.78 72.64 505.873 72.64ZM539.499 92V84.08H544.939C546.326 84.08 547.339 83.8667 547.979 83.44C548.673 83.0133 549.206 82.2933 549.579 81.28L550.779 78.32H547.819L532.539 37.28H543.179L553.899 68.72L564.139 37.28H574.779L558.059 84.48C557.099 87.1467 555.739 89.0667 553.979 90.24C552.273 91.4133 549.873 92 546.779 92H539.499Z" fill="#3A3A3A"/>
<defs>
<clipPath id="clip0_1201_1176">
<rect width="107" height="107" fill="white"/>
</clipPath>
</defs>
</svg>
