<svg width="2061" height="90" viewBox="0 0 2061 90" fill="none" xmlns="http://www.w3.org/2000/svg">
<path d="M0 55.8618L48.9487 59.5143C98.1122 62.9519 196.01 70.2569 294.122 71.9757C392.234 73.6946 490.132 70.2569 588.244 71.3312C686.356 72.4055 784.253 77.9916 882.795 78.4213C981.122 78.851 1079.88 73.6946 1178.2 74.7688C1276.75 75.8431 1374.64 83.1481 1472.76 86.5857C1570.87 90.2383 1668.77 90.2383 1766.88 89.8085C1864.99 89.5937 1962.89 88.7343 2012.05 88.5194L2061 88.0897V0H2012.05C1962.89 0 1864.99 0 1766.88 0C1668.77 0 1570.87 0 1472.76 0C1374.64 0 1276.75 0 1178.2 0C1079.88 0 981.122 0 882.795 0C784.253 0 686.356 0 588.244 0C490.132 0 392.234 0 294.122 0C196.01 0 98.1122 0 48.9487 0H0V55.8618Z" fill="#98846B" fill-opacity="0.16"/>
<path d="M0 47.2677L48.9487 50.9202C98.1122 54.3578 196.01 61.6628 294.122 65.1004C392.234 68.753 490.132 68.753 588.244 66.1747C686.356 63.8113 784.253 58.6549 882.795 59.5143C981.122 60.1588 1079.88 66.6044 1178.2 70.2569C1276.75 73.6946 1374.64 74.554 1472.76 74.7688C1570.87 75.1985 1668.77 75.1985 1766.88 73.05C1864.99 70.9015 1962.89 66.6044 2012.05 64.4559L2061 62.3074V0H2012.05C1962.89 0 1864.99 0 1766.88 0C1668.77 0 1570.87 0 1472.76 0C1374.64 0 1276.75 0 1178.2 0C1079.88 0 981.122 0 882.795 0C784.253 0 686.356 0 588.244 0C490.132 0 392.234 0 294.122 0C196.01 0 98.1122 0 48.9487 0H0V47.2677Z" fill="#98846B" fill-opacity="0.48"/>
<path d="M0 53.7132L48.9487 54.3578C98.1122 55.2172 196.01 56.5063 294.122 55.2172C392.234 53.7132 490.132 49.4162 588.244 46.6231C686.356 43.6152 784.253 42.326 882.795 43.4003C981.122 44.4746 1079.88 47.9122 1178.2 49.8459C1276.75 51.5647 1374.64 51.5647 1472.76 50.4904C1570.87 49.4162 1668.77 47.2676 1766.88 47.9122C1864.99 48.7716 1962.89 52.2093 2012.05 54.1429L2061 55.8618V0H2012.05C1962.89 0 1864.99 0 1766.88 0C1668.77 0 1570.87 0 1472.76 0C1374.64 0 1276.75 0 1178.2 0C1079.88 0 981.122 0 882.795 0C784.253 0 686.356 0 588.244 0C490.132 0 392.234 0 294.122 0C196.01 0 98.1122 0 48.9487 0H0V53.7132Z" fill="#BBAD9B"/>
<path d="M0 25.7824H48.9487C98.1122 25.7824 196.01 25.7824 294.122 26.4269C392.234 27.2863 490.132 28.5754 588.244 29.0052C686.356 29.4349 784.253 28.5754 882.795 27.2863C981.122 25.7824 1079.88 23.6338 1178.2 25.3527C1276.75 27.2863 1374.64 32.8725 1472.76 32.8725C1570.87 32.8725 1668.77 27.2863 1766.88 27.9309C1864.99 28.5754 1962.89 35.8804 2012.05 39.3181L2061 42.9706V0H2012.05C1962.89 0 1864.99 0 1766.88 0C1668.77 0 1570.87 0 1472.76 0C1374.64 0 1276.75 0 1178.2 0C1079.88 0 981.122 0 882.795 0C784.253 0 686.356 0 588.244 0C490.132 0 392.234 0 294.122 0C196.01 0 98.1122 0 48.9487 0H0V25.7824Z" fill="#B5A897"/>
<path d="M0 15.0397L48.9487 16.7585C98.1122 18.6922 196.01 22.1299 294.122 22.9893C392.234 23.6338 490.132 21.4853 588.244 20.8407C686.356 19.9813 784.253 20.8407 882.795 19.3368C981.122 17.8328 1079.88 14.3951 1178.2 13.3209C1276.75 12.2466 1374.64 13.5357 1472.76 14.3951C1570.87 15.0397 1668.77 15.0397 1766.88 13.9654C1864.99 12.8912 1962.89 10.7426 2012.05 9.66838L2061 8.59412V0H2012.05C1962.89 0 1864.99 0 1766.88 0C1668.77 0 1570.87 0 1472.76 0C1374.64 0 1276.75 0 1178.2 0C1079.88 0 981.122 0 882.795 0C784.253 0 686.356 0 588.244 0C490.132 0 392.234 0 294.122 0C196.01 0 98.1122 0 48.9487 0H0V15.0397Z" fill="#C3B29E"/>
</svg>
