<svg width="280" height="433" viewBox="0 0 280 433" fill="none" xmlns="http://www.w3.org/2000/svg">
<g clip-path="url(#clip0_1215_1197)">
<path d="M190.028 242.278C190.028 245.431 188.775 248.455 186.546 250.684C184.316 252.914 181.292 254.167 178.139 254.167H100.861C97.7079 254.167 94.6839 252.914 92.4543 250.684C90.2247 248.455 88.9722 245.431 88.9722 242.278V183.764C88.9722 177.198 106.184 165 112.75 165H174.052C183.248 165 190.028 171.872 190.028 180.976V242.278Z" fill="#76685E"/>
<path d="M184.083 254.167C184.083 257.32 182.831 260.344 180.601 262.573C178.372 264.803 175.348 266.056 172.195 266.056H106.806C103.653 266.056 100.629 264.803 98.3989 262.573C96.1693 260.344 94.9168 257.32 94.9168 254.167V182.833C94.9168 170.591 94.8543 170.944 109.778 170.944H172.195C175.348 170.944 178.372 172.197 180.601 174.427C182.831 176.656 184.083 179.68 184.083 182.833V254.167Z" fill="#DDD3C8"/>
<path d="M178.139 257.139C178.139 259.504 177.199 261.772 175.527 263.444C173.855 265.116 171.587 266.056 169.222 266.056H97.8888C95.524 266.056 93.256 265.116 91.5838 263.444C89.9116 261.772 88.9722 259.504 88.9722 257.139V185.806C88.9722 183.441 89.9116 181.173 91.5838 179.501C93.256 177.828 95.524 176.889 97.8888 176.889H169.222C171.587 176.889 173.855 177.828 175.527 179.501C177.199 181.173 178.139 183.441 178.139 185.806V257.139Z" fill="#DDD3C8"/>
<path d="M178.139 260.111C178.139 263.264 176.886 266.288 174.657 268.518C172.427 270.747 169.403 272 166.25 272H103.833C100.68 272 97.6561 270.747 95.4265 268.518C93.1969 266.288 91.9443 263.264 91.9443 260.111V194.722C91.9443 191.569 93.1969 188.545 95.4265 186.316C97.6561 184.086 100.68 182.833 103.833 182.833H166.25C169.403 182.833 172.427 184.086 174.657 186.316C176.886 188.545 178.139 191.569 178.139 194.722V260.111Z" fill="#76685E"/>
<path d="M172.194 260.111C172.194 263.264 170.942 266.288 168.712 268.518C166.483 270.747 163.459 272 160.305 272H103.833C100.68 272 97.6561 270.747 95.4265 268.518C93.1969 266.288 91.9443 263.264 91.9443 260.111V200.667C91.9443 197.514 93.1969 194.49 95.4265 192.26C97.6561 190.03 100.68 188.778 103.833 188.778H161.301C167.867 188.778 172.194 193.105 172.194 199.671V260.111Z" fill="#9E958F"/>
<path d="M103.833 182.833C98.8162 182.833 98.6884 177.121 100.861 174.66C103.334 171.863 107.177 170.944 114.052 170.944H118.694V165H110.613C98.8162 165 88.9722 172.431 88.9722 180.976V260.111C88.9722 263.264 90.2247 266.288 92.4543 268.518C94.6839 270.747 97.7079 272 100.861 272H106.806V182.833H103.833Z" fill="#76685E"/>
</g>
<defs>
<clipPath id="clip0_1215_1197">
<rect width="107" height="107" fill="white" transform="translate(86 165)"/>
</clipPath>
</defs>
</svg>
