<svg width="107" height="107" viewBox="0 0 107 107" fill="none" xmlns="http://www.w3.org/2000/svg">
<g clip-path="url(#clip0_1200_1198)">
<path d="M104.028 77.2778C104.028 80.4309 102.775 83.4549 100.546 85.6845C98.316 87.9141 95.292 89.1667 92.1388 89.1667H14.8611C11.7079 89.1667 8.68394 87.9141 6.45434 85.6845C4.22474 83.4549 2.97217 80.4309 2.97217 77.2778V18.7636C2.97217 12.198 20.1843 0 26.7499 0H88.052C97.2481 0 104.028 6.87178 104.028 15.9757V77.2778Z" fill="#3E721D"/>
<path d="M98.0834 89.1666C98.0834 92.3198 96.8308 95.3437 94.6012 97.5733C92.3716 99.8029 89.3477 101.056 86.1945 101.056H20.8056C17.6525 101.056 14.6285 99.8029 12.3989 97.5733C10.1693 95.3437 8.91675 92.3198 8.91675 89.1666V17.8333C8.91675 5.59072 8.85434 5.94441 23.7779 5.94441H86.1945C89.3477 5.94441 92.3716 7.19699 94.6012 9.42659C96.8308 11.6562 98.0834 14.6802 98.0834 17.8333V89.1666Z" fill="#CCD6DD"/>
<path d="M92.1388 92.1389C92.1388 94.5038 91.1994 96.7718 89.5272 98.444C87.855 100.116 85.587 101.056 83.2222 101.056H11.8888C9.52399 101.056 7.256 100.116 5.5838 98.444C3.9116 96.7718 2.97217 94.5038 2.97217 92.1389V20.8056C2.97217 18.4407 3.9116 16.1727 5.5838 14.5005C7.256 12.8283 9.52399 11.8889 11.8888 11.8889H83.2222C85.587 11.8889 87.855 12.8283 89.5272 14.5005C91.1994 16.1727 92.1388 18.4407 92.1388 20.8056V92.1389Z" fill="#E1E8ED"/>
<path d="M92.1388 95.1112C92.1388 98.2643 90.8862 101.288 88.6566 103.518C86.427 105.747 83.403 107 80.2499 107H17.8332C14.6801 107 11.6561 105.747 9.42651 103.518C7.19691 101.288 5.94434 98.2643 5.94434 95.1112V29.7223C5.94434 26.5691 7.19691 23.5451 9.42651 21.3155C11.6561 19.0859 14.6801 17.8334 17.8332 17.8334H80.2499C83.403 17.8334 86.427 19.0859 88.6566 21.3155C90.8862 23.5451 92.1388 26.5691 92.1388 29.7223V95.1112Z" fill="#5C913B"/>
<path d="M86.1943 95.1112C86.1943 98.2643 84.9418 101.288 82.7122 103.518C80.4826 105.747 77.4586 107 74.3054 107H17.8332C14.6801 107 11.6561 105.747 9.42651 103.518C7.19691 101.288 5.94434 98.2643 5.94434 95.1112V35.6667C5.94434 32.5136 7.19691 29.4896 9.42651 27.26C11.6561 25.0304 14.6801 23.7778 17.8332 23.7778H75.3011C81.8668 23.7778 86.1943 28.1054 86.1943 34.671V95.1112Z" fill="#77B255"/>
<path d="M17.8333 17.8333C12.8162 17.8333 12.6884 12.1207 14.8611 9.65972C17.3339 6.86286 21.177 5.94444 28.0518 5.94444H32.6944V0H24.6129C12.8162 0 2.97217 7.43056 2.97217 15.9757V95.1111C2.97217 98.2642 4.22474 101.288 6.45434 103.518C8.68394 105.747 11.7079 107 14.8611 107H20.8055V17.8333H17.8333Z" fill="#3E721D"/>
</g>
<defs>
<clipPath id="clip0_1200_1198">
<rect width="107" height="107" fill="white"/>
</clipPath>
</defs>
</svg>
